# AST/ASF file generated using VICON BodyLanguage
# -----------------------------------------------
:version 1.10
:name VICON
:units
  mass 1.0
  length 0.45
  angle deg
:documentation
   .ast/.asf automatically generated from VICON data using
   VICON BodyBuilder and BodyLanguage model FoxedUp or BRILLIANT.MOD
:root
   order TX TY TZ RX RY RZ
   axis XYZ
   position 0 0 0  
   orientation 0 0 0 
:bonedata
  begin
     id 1 
     name lhipjoint
     direction 0.643272 -0.706573 0.294883 
     length 2.58915 
     axis 0 0 0  XYZ
  end
  begin
     id 2 
     name lfemur
     direction 0.34202 -0.939693 0  
     length 7.06802  
     axis 0 0 20  XYZ
    dof rx ry rz
    limits (-160.0 20.0)
           (-70.0 70.0)
           (-60.0 70.0)
  end
  begin
     id 3 
     name ltibia
     direction 0.34202 -0.939693 0   
     length 7.94147   
     axis 0 0 20   XYZ
    dof rx
    limits (-10.0 170.0)
  end
  begin
     id 4 
     name lfoot
     direction 0.0435058 -0.119531 0.991877   
     length 1.8399   
     axis -90 7.62852e-016 20   XYZ
    dof rx rz
    limits (-45.0 90.0)
           (-70.0 20.0)
  end
  begin
     id 5 
     name ltoes
     direction 1.53505e-011 -4.22157e-011 1   
     length 0.934412   
     axis -90 7.62852e-016 20   XYZ
    dof rx
    limits (-90.0 20.0)
  end
  begin
     id 6 
     name rhipjoint
     direction -0.636801 -0.711547 0.296959   
     length 2.57105  
     axis 0 0 0  XYZ 
  end
  begin
     id 7 
     name rfemur
     direction -0.34202 -0.939693 0   
     length 7.03285   
     axis 0 0 -20   XYZ
    dof rx ry rz
    limits (-160.0 20.0)
           (-70.0 70.0)
           (-70.0 60.0)
  end
  begin
     id 8 
     name rtibia
     direction -0.34202 -0.939693 0   
     length 7.99111   
     axis 0 0 -20   XYZ
    dof rx
    limits (-10.0 170.0)
 end
 begin
     id 9 
     name rfoot
     direction -0.0783088 -0.215152 0.973436   
     length 1.98785  
     axis -90 -7.62852e-016 -20   XYZ
    dof rx rz
    limits (-45.0 90.0)
           (-20.0 70.0)
  end
  begin
     id 10 
     name rtoes
     direction -1.53606e-011 -4.21943e-011 1   
     length 1.001   
     axis -90 -7.62852e-016 -20   XYZ
    dof rx
    limits (-90.0 20.0)
  end
  begin
     id 11 
     name lowerback
     direction 0.00141527 0.998403 -0.0564763   
     length 2.30486   
     axis 0 0 0   XYZ
    dof rx ry rz
    limits (-20.0 45.0)
           (-30.0 30.0)
           (-30.0 30.0)
  end
  begin
     id 12 
     name upperback
     direction 0.0125137 0.999915 0.00361315   
     length 2.30697   
     axis 0 0 0   XYZ
    dof rx ry rz
    limits (-20.0 45.0)
           (-30.0 30.0)
           (-30.0 30.0)
  end
  begin
     id 13 
     name thorax
     direction 0.0136417 0.999471 0.0295116   
     length 2.31005   
     axis 0 0 0   XYZ
    dof rx ry rz
    limits (-20.0 45.0)
           (-30.0 30.0)
           (-30.0 30.0)
  end
  begin
     id 14 
     name lowerneck
     direction 0.0766806 0.997047 0.00422047   
     length 1.68825   
     axis 0 0 0   XYZ
    dof rx ry rz
    limits (-20.0 45.0)
           (-30.0 30.0)
           (-30.0 30.0)
  end
  begin
     id 15 
     name upperneck
     direction -0.143512 0.985106 -0.0947088   
     length 1.69772   
     axis 0 0 0   XYZ
    dof rx ry rz
    limits (-20.0 45.0)
           (-30.0 30.0)
           (-30.0 30.0)
  end
  begin
     id 16
     name head
     direction -0.0539128 0.997849 -0.0372864  
     length 1.71187  
     axis 0 0 0   XYZ
    dof rx ry rz
    limits (-20.0 45.0)
           (-30.0 30.0)
           (-30.0 30.0)
  end
  begin
     id 17 
     name lclavicle
     direction 0.978251 0.207416 -0.00165765  
     length 3.35399  
     axis 0 0 0   XYZ
    dof ry rz
    limits (-20.0 10.0)
           (0.0 20.0)
  end
  begin
     id 18 
     name lhumerus
     direction 1 -4.48966e-011 -1.32191e-028   
     length 5.70706   
     axis 180 -30 -90   XYZ
    dof rx ry rz
    limits (-60.0 90.0)
           (-90.0 90.0)
           (-90.0 90.0)
  end
  begin
     id 19
     name lradius
     direction 1 -4.48976e-011 9.36106e-027   
     length 3.33243   
     axis 180 -30 -90   XYZ
    dof rx
    limits (-10.0 170.0)
  end
  begin
     id 20
     name lwrist
     direction 1 -4.48976e-011 1.1555e-026   
     length 1.66621   
     axis -5.7412e-015 90 90   XYZ
    dof ry
    limits (-180.0 0.0)
 end
  begin
     id 21 
     name lhand
     direction 1 -4.48939e-011 2.31113e-026   
     length 0.792687   
     axis -1.47463e-014 90 90   XYZ
    dof rx rz
    limits (-90.0 90.0)
           (-45.0 45.0)
  end
  begin
     id 22 
     name lfingers
     direction 1 -4.48866e-011 4.62274e-026   
     length 0.639085   
     axis -2.94925e-014 90 90   XYZ
    dof rx
    limits (0.0 90.0)
  end
  begin
     id 23
     name lthumb
     direction 0.707107 -6.34847e-011 0.707107   
     length 0.917601   
     axis -90 45 -6.68868e-015   XYZ
    dof rx rz
    limits (-45.0 45.0)
           (-45.0 45.0)
  end
  begin
     id 24 
     name rclavicle
     direction -0.981813 0.185514 0.0403428   
     length 3.47271  
     axis 0 0 0   XYZ 
    dof ry rz
    limits (-10.0 20.0)
           (-20.0 0.0)
  end
  begin
     id 25 
     name rhumerus
     direction -1 -4.48972e-011 -6.58544e-029  
     length 5.88176   
     axis 180 30 90   XYZ
    dof rx ry rz
    limits (-90.0 60.0)
           (-90.0 90.0)
           (-90.0 90.0)
  end
  begin
     id 26 
     name rradius
     direction -1 -4.48964e-011 8.36306e-027   
     length 3.28156   
     axis 180 30 90   XYZ
    dof rx
    limits (-10.0 170.0)
  end
  begin
     id 27 
     name rwrist
     direction -1 -4.48903e-011 1.15562e-026   
     length 1.64078   
     axis -5.7412e-015 -90 -90   XYZ
    dof ry
    limits (-180.0 0.0)
  end
  begin
     id 28
     name rhand
     direction -1 -4.49055e-011 2.31074e-026   
     length 0.863125   
     axis -1.47463e-014 -90 -90   XYZ
    dof rx rz
    limits (-90.0 90.0)
           (-45.0 45.0)
  end
  begin
     id 29
     name rfingers
     direction -1 -4.48994e-011 4.62188e-026   
     length 0.695873   
     axis -2.94925e-014 -90 -90   XYZ
    dof rx
    limits (0.0 90.0)
  end
  begin
     id 30
     name rthumb
     direction -0.707107 -6.35058e-011 0.707107   
     length 0.999139   
     axis -90 -45 6.68868e-015   XYZ
    dof rx rz
    limits (-45.0 45.0)
           (-45.0 45.0)
  end
:hierarchy
  begin
    root lhipjoint rhipjoint lowerback
    lhipjoint lfemur
    lfemur ltibia
    ltibia lfoot
    lfoot ltoes
    rhipjoint rfemur
    rfemur rtibia
    rtibia rfoot
    rfoot rtoes
    lowerback upperback
    upperback thorax
    thorax lowerneck lclavicle rclavicle
    lowerneck upperneck
    upperneck head
    lclavicle lhumerus
    lhumerus lradius
    lradius lwrist
    lwrist lhand lthumb
    lhand lfingers
    rclavicle rhumerus
    rhumerus rradius
    rradius rwrist
    rwrist rhand rthumb
    rhand rfingers
  end

#!OML:ASF \\Waltz\H\Terrain\Patient Classification 1\Animal2\Wednesday\Animal2.ASF
:FULLY-SPECIFIED
:DEGREES
2112
root -0.983462 17.4514 15.0861 0.160086 -1.66372 -10.2068
lowerback 7.89115 -3.58866 6.39406
upperback -1.36781 -3.86509 5.07176
thorax -5.94833 -2.03043 2.24838
lowerneck 10.2225 7.9796 17.1003
upperneck -10.4594 11.2189 -20.9557
head -2.44776 6.18533 -9.82787
rclavicle -2.75286e-014 6.75868e-015
rhumerus 36.9179 46.2748 -31.1913
rradius 86.8907
rwrist -23.479
rhand -18.7372 21.1749
rfingers 7.12502
rthumb 7.55882 -8.67005
lclavicle -2.75286e-014 6.75868e-015
lhumerus 31.2491 12.2481 20.6195
lradius 64.1473
lwrist -5.52705
lhand -50.3678 24.5571
lfingers 7.12502
lthumb -22.9421 53.2121
rfemur -12.7366 -4.40945 31.1044
rtibia 39.8543
rfoot -17.9944 5.46098
rtoes 30.7749
lfemur -21.9464 -3.81356 -8.09352
ltibia 47.8677
lfoot -20.507 -3.90737
ltoes -3.95851
2113
root -0.929136 17.4274 15.1033 0.0922345 -1.94598 -9.21718
lowerback 8.20145 -3.59381 6.25383
upperback -1.62893 -3.86463 4.54391
thorax -6.42853 -2.04126 1.80874
lowerneck 10.5119 8.02853 17.138
upperneck -10.3625 11.3468 -20.913
head -2.44521 6.25758 -9.82987
rclavicle 1.076e-014 1.59028e-014
rhumerus 36.7546 46.7011 -31.572
rradius 86.9411
rwrist -23.3356
rhand -18.6828 21.2767
rfingers 7.12502
rthumb 7.61131 -8.56637
lclavicle 1.076e-014 1.59028e-014
lhumerus 31.0911 12.1192 20.5412
lradius 64.199
lwrist -5.78566
lhand -50.0836 25.3634
lfingers 7.12502
lthumb -22.6693 54.052
rfemur -13.2619 -3.99713 30.137
rtibia 41.1971
rfoot -18.8449 4.20197
rtoes 31.4829
lfemur -21.1441 -3.0699 -9.50466
ltibia 46.7931
lfoot -21.169 -3.56896
ltoes -4.66481
2114
root -0.87671 17.3986 15.1219 -0.0076637 -2.27851 -8.04542
lowerback 8.51467 -3.53908 5.93898
upperback -1.85755 -3.81593 3.95082
thorax -6.86757 -2.02326 1.38647
lowerneck 10.6389 8.04406 16.9523
upperneck -10.2365 11.3885 -20.6616
head -2.45276 6.27503 -9.7162
rclavicle -2.84262e-014 -1.23246e-014
rhumerus 36.5248 47.0396 -31.921
rradius 86.9496
rwrist -23.2916
rhand -18.8363 21.4843
rfingers 7.12502
rthumb 7.46319 -8.36407
lclavicle -2.84262e-014 -1.23246e-014
lhumerus 31.0398 11.8999 20.2742
lradius 64.2052
lwrist -5.66038
lhand -49.4585 26.1498
lfingers 7.12502
lthumb -22.0693 54.9105
rfemur -13.8455 -3.56983 28.9775
rtibia 42.7064
rfoot -19.6566 2.98025
rtoes 31.6953
lfemur -20.2998 -2.2083 -11.0035
ltibia 45.6981
lfoot -21.6658 -3.46216
ltoes -6.64555
2115
root -0.825931 17.3688 15.1453 0.149114 -2.47822 -7.08522
lowerback 8.47929 -3.49367 5.79852
upperback -2.12925 -3.78563 3.51184
thorax -7.15648 -2.01829 1.01008
lowerneck 10.7177 8.06115 16.6147
upperneck -10.0369 11.4068 -20.4402
head -2.4429 6.28572 -9.58225
rclavicle -1.84497e-015 3.4191e-014
rhumerus 36.3417 47.3288 -32.0081
rradius 86.9829
rwrist -23.2319
rhand -18.951 21.7723
rfingers 7.12502
rthumb 7.35247 -8.07994
lclavicle -1.84497e-015 3.4191e-014
lhumerus 31.0103 11.7542 20.1345
lradius 64.1732
lwrist -5.49425
lhand -49.08 26.2573
lfingers 7.12502
lthumb -21.7059 55.0605
rfemur -14.7495 -3.22102 28.0584
rtibia 44.32
rfoot -20.4622 1.77029
rtoes 32.0495
lfemur -19.8007 -1.21768 -12.168
ltibia 44.6855
lfoot -22.0797 -3.1922
ltoes -11.7089
2116
root -0.779786 17.3378 15.1638 0.404413 -2.63103 -6.20923
lowerback 8.53514 -3.47924 5.6108
upperback -2.60231 -3.78139 3.15336
thorax -7.70738 -2.02763 0.765589
lowerneck 11.1489 8.06054 16.4995
upperneck -9.81825 11.4741 -20.376
head -2.45313 6.33756 -9.55891
rclavicle 1.23743e-014 0
rhumerus 35.8342 47.8682 -32.3461
rradius 87.0622
rwrist -23.0478
rhand -18.7903 21.9705
rfingers 7.12502
rthumb 7.50753 -7.87628
lclavicle 1.23743e-014 0
lhumerus 30.8891 11.4729 20.3061
lradius 64.0944
lwrist -5.7818
lhand -49.198 26.4496
lfingers 7.12502
lthumb -21.8192 55.2396
rfemur -15.7873 -2.96253 27.2764
rtibia 45.9804
rfoot -21.2769 0.307998
rtoes 31.6608
lfemur -19.5526 -0.187219 -13.1957
ltibia 43.8293
lfoot -22.3537 -3.28379
ltoes -15.333
2117
root -0.736829 17.3128 15.1748 0.589168 -2.75277 -4.93967
lowerback 8.52659 -3.45558 4.94945
upperback -2.89534 -3.84883 2.66437
thorax -8.00496 -2.04819 0.640487
lowerneck 11.3887 8.07417 16.577
upperneck -9.78109 11.5375 -20.4367
head -2.46196 6.38029 -9.60438
rclavicle 2.42145e-014 -2.38542e-015
rhumerus 35.5387 48.0892 -32.6685
rradius 87.1635
rwrist -22.9028
rhand -18.5029 21.8412
rfingers 7.12502
rthumb 7.78496 -7.99548
lclavicle 2.42145e-014 -2.38542e-015
lhumerus 30.9141 11.4717 20.4295
lradius 63.9048
lwrist -5.9204
lhand -49.8159 26.3505
lfingers 7.12502
lthumb -22.4124 55.0702
rfemur -16.8266 -2.70701 26.0741
rtibia 47.663
rfoot -21.9322 -1.03012
rtoes 30.5601
lfemur -19.4059 0.897326 -14.689
ltibia 43.1433
lfoot -22.2776 -4.24758
ltoes -15.2615
2118
root -0.700933 17.3058 15.189 0.836672 -2.70398 -3.41513
lowerback 8.09139 -3.44517 3.96922
upperback -2.92169 -4.0157 2.10447
thorax -7.75156 -2.09755 0.589876
lowerneck 11.0796 8.14912 16.5496
upperneck -9.68817 11.6068 -20.3981
head -2.3736 6.3997 -9.55877
rclavicle 5.76476e-015 5.56597e-015
rhumerus 35.6286 47.879 -32.682
rradius 87.2868
rwrist -22.722
rhand -18.489 21.6665
rfingers 7.12502
rthumb 7.79835 -8.1697
lclavicle 5.76476e-015 5.56597e-015
lhumerus 31.1352 11.9381 20.563
lradius 63.819
lwrist -5.94803
lhand -50.5445 25.8203
lfingers 7.12502
lthumb -23.1116 54.4542
rfemur -17.9666 -2.44753 24.5648
rtibia 49.304
rfoot -22.2935 -1.87752
rtoes 31.079
lfemur -19.4858 1.98466 -16.4862
ltibia 42.6164
lfoot -21.961 -5.29269
ltoes -15.6521
2119
root -0.673597 17.3016 15.2036 1.04581 -2.54125 -2.19848
lowerback 7.70991 -3.49805 3.18029
upperback -2.89818 -4.22334 1.68512
thorax -7.48072 -2.17299 0.589527
lowerneck 10.6788 8.26484 16.3538
upperneck -9.64635 11.693 -20.2876
head -2.29698 6.42503 -9.4576
rclavicle 2.97183e-014 -7.95139e-016
rhumerus 35.8791 47.6628 -32.5228
rradius 87.3506
rwrist -22.5343
rhand -18.7877 21.6044
rfingers 7.12502
rthumb 7.51003 -8.24229
lclavicle 2.97183e-014 -7.95139e-016
lhumerus 31.2607 12.4364 20.7725
lradius 63.9121
lwrist -6.03206
lhand -50.6614 26.2224
lfingers 7.12502
lthumb -23.2238 54.8422
rfemur -19.0389 -2.24079 23.4109
rtibia 50.8489
rfoot -22.523 -2.7781
rtoes 31.5525
lfemur -19.6281 3.06477 -17.8932
ltibia 42.1965
lfoot -21.6188 -6.50777
ltoes -15.5356
2120
root -0.647962 17.2925 15.2169 1.10806 -2.42309 -1.19032
lowerback 7.58809 -3.57977 2.54651
upperback -2.91005 -4.43039 1.3209
thorax -7.40484 -2.25473 0.580635
lowerneck 10.4727 8.39899 16.2889
upperneck -9.67075 11.8418 -20.2255
head -2.24889 6.48862 -9.408
rclavicle -3.75455e-014 1.66979e-014
rhumerus 36.0556 47.5618 -32.5164
rradius 87.3721
rwrist -22.5207
rhand -18.8087 21.7285
rfingers 7.12502
rthumb 7.4898 -8.1189
lclavicle -3.75455e-014 1.66979e-014
lhumerus 31.2193 12.6885 20.7776
lradius 64.077
lwrist -5.73973
lhand -50.3354 26.8337
lfingers 7.12502
lthumb -22.911 55.4925
rfemur -19.8786 -2.12082 22.479
rtibia 52.262
rfoot -22.7684 -3.71099
rtoes 31.286
lfemur -19.6166 4.02553 -19.0345
ltibia 41.8081
lfoot -21.4175 -7.66621
ltoes -15.2964
2121
root -0.624331 17.2878 15.2359 1.02975 -2.404 -0.194418
lowerback 7.53218 -3.63744 1.86879
upperback -2.89823 -4.60632 0.954457
thorax -7.33674 -2.31925 0.59266
lowerneck 10.51 8.47622 16.4018
upperneck -9.78539 11.9522 -20.3111
head -2.25304 6.54652 -9.45827
rclavicle 4.46644e-014 3.97569e-015
rhumerus 36.0694 47.498 -32.6429
rradius 87.4543
rwrist -22.4651
rhand -18.4617 22.1058
rfingers 7.12502
rthumb 7.82469 -7.72945
lclavicle 4.46644e-014 3.97569e-015
lhumerus 31.1862 12.9037 20.8348
lradius 64.355
lwrist -5.22165
lhand -50.1367 26.1032
lfingers 7.12502
lthumb -22.7203 54.7855
rfemur -20.4404 -1.85505 21.5118
rtibia 53.5095
rfoot -22.9565 -4.33158
rtoes 31.206
lfemur -19.3672 4.7205 -20.1455
ltibia 41.4283
lfoot -21.2919 -8.52757
ltoes -14.7601
